<svg id="visual" viewBox="0 0 900 600" width="900" height="600" xmlns="http://www.w3.org/2000/svg" xmlns:xlink="http://www.w3.org/1999/xlink" version="1.1"><rect x="0" y="0" width="900" height="600" fill="#001220"></rect><path d="M0 326L25 306.3C50 286.7 100 247.3 150 228.7C200 210 250 212 300 226.3C350 240.7 400 267.3 450 268.7C500 270 550 246 600 247.2C650 248.3 700 274.7 750 284C800 293.3 850 285.7 875 281.8L900 278L900 601L875 601C850 601 800 601 750 601C700 601 650 601 600 601C550 601 500 601 450 601C400 601 350 601 300 601C250 601 200 601 150 601C100 601 50 601 25 601L0 601Z" fill="#fa7268"></path><path d="M0 328L25 319.7C50 311.3 100 294.7 150 304.3C200 314 250 350 300 350.2C350 350.3 400 314.7 450 301.8C500 289 550 299 600 311C650 323 700 337 750 334.2C800 331.3 850 311.7 875 301.8L900 292L900 601L875 601C850 601 800 601 750 601C700 601 650 601 600 601C550 601 500 601 450 601C400 601 350 601 300 601C250 601 200 601 150 601C100 601 50 601 25 601L0 601Z" fill="#ef5f67"></path><path d="M0 399L25 407.8C50 416.7 100 434.3 150 433.7C200 433 250 414 300 398.7C350 383.3 400 371.7 450 371.7C500 371.7 550 383.3 600 386.5C650 389.7 700 384.3 750 391.3C800 398.3 850 417.7 875 427.3L900 437L900 601L875 601C850 601 800 601 750 601C700 601 650 601 600 601C550 601 500 601 450 601C400 601 350 601 300 601C250 601 200 601 150 601C100 601 50 601 25 601L0 601Z" fill="#e34c67"></path><path d="M0 486L25 477C50 468 100 450 150 445.7C200 441.3 250 450.7 300 458.2C350 465.7 400 471.3 450 478.8C500 486.3 550 495.7 600 485.3C650 475 700 445 750 439.7C800 434.3 850 453.7 875 463.3L900 473L900 601L875 601C850 601 800 601 750 601C700 601 650 601 600 601C550 601 500 601 450 601C400 601 350 601 300 601C250 601 200 601 150 601C100 601 50 601 25 601L0 601Z" fill="#d53867"></path><path d="M0 532L25 534.7C50 537.3 100 542.7 150 540.8C200 539 250 530 300 519.2C350 508.3 400 495.7 450 491.7C500 487.7 550 492.3 600 499.3C650 506.3 700 515.7 750 519.3C800 523 850 521 875 520L900 519L900 601L875 601C850 601 800 601 750 601C700 601 650 601 600 601C550 601 500 601 450 601C400 601 350 601 300 601C250 601 200 601 150 601C100 601 50 601 25 601L0 601Z" fill="#c62368"></path></svg>