<svg id="visual" viewBox="0 0 900 600" width="900" height="600" xmlns="http://www.w3.org/2000/svg" xmlns:xlink="http://www.w3.org/1999/xlink" version="1.1"><rect width="900" height="600" fill="#001829"></rect><g><g transform="translate(627 89)"><path d="M0 -34.7L30 -17.3L30 17.3L0 34.7L-30 17.3L-30 -17.3Z" fill="#297EA6"></path></g><g transform="translate(188 540)"><path d="M0 -27L23.4 -13.5L23.4 13.5L0 27L-23.4 13.5L-23.4 -13.5Z" fill="#297EA6"></path></g><g transform="translate(327 304)"><path d="M0 -24L20.8 -12L20.8 12L0 24L-20.8 12L-20.8 -12Z" fill="#297EA6"></path></g><g transform="translate(150 4)"><path d="M0 -32L27.7 -16L27.7 16L0 32L-27.7 16L-27.7 -16Z" fill="#297EA6"></path></g><g transform="translate(844 497)"><path d="M0 -28L24.2 -14L24.2 14L0 28L-24.2 14L-24.2 -14Z" fill="#297EA6"></path></g><g transform="translate(52 424)"><path d="M0 -29L25.1 -14.5L25.1 14.5L0 29L-25.1 14.5L-25.1 -14.5Z" fill="#297EA6"></path></g><g transform="translate(809 187)"><path d="M0 -31L26.8 -15.5L26.8 15.5L0 31L-26.8 15.5L-26.8 -15.5Z" fill="#297EA6"></path></g><g transform="translate(500 116)"><path d="M0 -23L19.9 -11.5L19.9 11.5L0 23L-19.9 11.5L-19.9 -11.5Z" fill="#297EA6"></path></g><g transform="translate(684 342)"><path d="M0 -21L18.2 -10.5L18.2 10.5L0 21L-18.2 10.5L-18.2 -10.5Z" fill="#297EA6"></path></g><g transform="translate(819 281)"><path d="M0 -21L18.2 -10.5L18.2 10.5L0 21L-18.2 10.5L-18.2 -10.5Z" fill="#297EA6"></path></g><g transform="translate(770 404)"><path d="M0 -33L28.6 -16.5L28.6 16.5L0 33L-28.6 16.5L-28.6 -16.5Z" fill="#297EA6"></path></g><g transform="translate(605 400)"><path d="M0 -29L25.1 -14.5L25.1 14.5L0 29L-25.1 14.5L-25.1 -14.5Z" fill="#297EA6"></path></g><g transform="translate(845 348)"><path d="M0 -22L19.1 -11L19.1 11L0 22L-19.1 11L-19.1 -11Z" fill="#297EA6"></path></g><g transform="translate(170 155)"><path d="M0 -32L27.7 -16L27.7 16L0 32L-27.7 16L-27.7 -16Z" fill="#297EA6"></path></g><g transform="translate(848 53)"><path d="M0 -22L19.1 -11L19.1 11L0 22L-19.1 11L-19.1 -11Z" fill="#297EA6"></path></g><g transform="translate(54 111)"><path d="M0 -27L23.4 -13.5L23.4 13.5L0 27L-23.4 13.5L-23.4 -13.5Z" fill="#297EA6"></path></g><g transform="translate(699 17)"><path d="M0 -32L27.7 -16L27.7 16L0 32L-27.7 16L-27.7 -16Z" fill="#297EA6"></path></g><g transform="translate(526 402)"><path d="M0 -27L23.4 -13.5L23.4 13.5L0 27L-23.4 13.5L-23.4 -13.5Z" fill="#297EA6"></path></g><g transform="translate(244 322)"><path d="M0 -23L19.9 -11.5L19.9 11.5L0 23L-19.9 11.5L-19.9 -11.5Z" fill="#297EA6"></path></g><g transform="translate(270 187)"><path d="M0 -29L25.1 -14.5L25.1 14.5L0 29L-25.1 14.5L-25.1 -14.5Z" fill="#297EA6"></path></g><g transform="translate(290 16)"><path d="M0 -27L23.4 -13.5L23.4 13.5L0 27L-23.4 13.5L-23.4 -13.5Z" fill="#297EA6"></path></g><g transform="translate(137 396)"><path d="M0 -24L20.8 -12L20.8 12L0 24L-20.8 12L-20.8 -12Z" fill="#297EA6"></path></g><g transform="translate(755 99)"><path d="M0 -23L19.9 -11.5L19.9 11.5L0 23L-19.9 11.5L-19.9 -11.5Z" fill="#297EA6"></path></g><g transform="translate(877 596)"><path d="M0 -29L25.1 -14.5L25.1 14.5L0 29L-25.1 14.5L-25.1 -14.5Z" fill="#297EA6"></path></g><g transform="translate(279 546)"><path d="M0 -32L27.7 -16L27.7 16L0 32L-27.7 16L-27.7 -16Z" fill="#297EA6"></path></g><g transform="translate(49 224)"><path d="M0 -25L21.7 -12.5L21.7 12.5L0 25L-21.7 12.5L-21.7 -12.5Z" fill="#297EA6"></path></g><g transform="translate(728 167)"><path d="M0 -22L19.1 -11L19.1 11L0 22L-19.1 11L-19.1 -11Z" fill="#297EA6"></path></g><g transform="translate(359 546)"><path d="M0 -25L21.7 -12.5L21.7 12.5L0 25L-21.7 12.5L-21.7 -12.5Z" fill="#297EA6"></path></g><g transform="translate(601 248)"><path d="M0 -25L21.7 -12.5L21.7 12.5L0 25L-21.7 12.5L-21.7 -12.5Z" fill="#297EA6"></path></g><g transform="translate(637 521)"><path d="M0 -33L28.6 -16.5L28.6 16.5L0 33L-28.6 16.5L-28.6 -16.5Z" fill="#297EA6"></path></g><g transform="translate(443 261)"><path d="M0 -27L23.4 -13.5L23.4 13.5L0 27L-23.4 13.5L-23.4 -13.5Z" fill="#297EA6"></path></g><g transform="translate(458 387)"><path d="M0 -30L26 -15L26 15L0 30L-26 15L-26 -15Z" fill="#297EA6"></path></g><g transform="translate(288 469)"><path d="M0 -29L25.1 -14.5L25.1 14.5L0 29L-25.1 14.5L-25.1 -14.5Z" fill="#297EA6"></path></g><g transform="translate(784 570)"><path d="M0 -22L19.1 -11L19.1 11L0 22L-19.1 11L-19.1 -11Z" fill="#297EA6"></path></g><g transform="translate(554 54)"><path d="M0 -24L20.8 -12L20.8 12L0 24L-20.8 12L-20.8 -12Z" fill="#297EA6"></path></g><g transform="translate(375 9)"><path d="M0 -33L28.6 -16.5L28.6 16.5L0 33L-28.6 16.5L-28.6 -16.5Z" fill="#297EA6"></path></g><g transform="translate(482 19)"><path d="M0 -22L19.1 -11L19.1 11L0 22L-19.1 11L-19.1 -11Z" fill="#297EA6"></path></g><g transform="translate(284 103)"><path d="M0 -21L18.2 -10.5L18.2 10.5L0 21L-18.2 10.5L-18.2 -10.5Z" fill="#297EA6"></path></g><g transform="translate(388 466)"><path d="M0 -24L20.8 -12L20.8 12L0 24L-20.8 12L-20.8 -12Z" fill="#297EA6"></path></g><g transform="translate(388 179)"><path d="M0 -22L19.1 -11L19.1 11L0 22L-19.1 11L-19.1 -11Z" fill="#297EA6"></path></g><g transform="translate(531 207)"><path d="M0 -23L19.9 -11.5L19.9 11.5L0 23L-19.9 11.5L-19.9 -11.5Z" fill="#297EA6"></path></g><g transform="translate(504 300)"><path d="M0 -30L26 -15L26 15L0 30L-26 15L-26 -15Z" fill="#297EA6"></path></g><g transform="translate(353 377)"><path d="M0 -33L28.6 -16.5L28.6 16.5L0 33L-28.6 16.5L-28.6 -16.5Z" fill="#297EA6"></path></g><g transform="translate(475 569)"><path d="M0 -28L24.2 -14L24.2 14L0 28L-24.2 14L-24.2 -14Z" fill="#297EA6"></path></g><g transform="translate(785 11)"><path d="M0 -26L22.5 -13L22.5 13L0 26L-22.5 13L-22.5 -13Z" fill="#297EA6"></path></g><g transform="translate(221 388)"><path d="M0 -26L22.5 -13L22.5 13L0 26L-22.5 13L-22.5 -13Z" fill="#297EA6"></path></g><g transform="translate(150 272)"><path d="M0 -32L27.7 -16L27.7 16L0 32L-27.7 16L-27.7 -16Z" fill="#297EA6"></path></g><g transform="translate(598 589)"><path d="M0 -26L22.5 -13L22.5 13L0 26L-22.5 13L-22.5 -13Z" fill="#297EA6"></path></g><g transform="translate(588 323)"><path d="M0 -31L26.8 -15.5L26.8 15.5L0 31L-26.8 15.5L-26.8 -15.5Z" fill="#297EA6"></path></g><g transform="translate(117 554)"><path d="M0 -33L28.6 -16.5L28.6 16.5L0 33L-28.6 16.5L-28.6 -16.5Z" fill="#297EA6"></path></g><g transform="translate(418 110)"><path d="M0 -28L24.2 -14L24.2 14L0 28L-24.2 14L-24.2 -14Z" fill="#297EA6"></path></g><g transform="translate(705 462)"><path d="M0 -26L22.5 -13L22.5 13L0 26L-22.5 13L-22.5 -13Z" fill="#297EA6"></path></g><g transform="translate(37 348)"><path d="M0 -25L21.7 -12.5L21.7 12.5L0 25L-21.7 12.5L-21.7 -12.5Z" fill="#297EA6"></path></g><g transform="translate(203 471)"><path d="M0 -24L20.8 -12L20.8 12L0 24L-20.8 12L-20.8 -12Z" fill="#297EA6"></path></g><g transform="translate(211 77)"><path d="M0 -33L28.6 -16.5L28.6 16.5L0 33L-28.6 16.5L-28.6 -16.5Z" fill="#297EA6"></path></g><g transform="translate(886 119)"><path d="M0 -24L20.8 -12L20.8 12L0 24L-20.8 12L-20.8 -12Z" fill="#297EA6"></path></g><g transform="translate(587 151)"><path d="M0 -28L24.2 -14L24.2 14L0 28L-24.2 14L-24.2 -14Z" fill="#297EA6"></path></g><g transform="translate(33 556)"><path d="M0 -31L26.8 -15.5L26.8 15.5L0 31L-26.8 15.5L-26.8 -15.5Z" fill="#297EA6"></path></g><g transform="translate(891 403)"><path d="M0 -32L27.7 -16L27.7 16L0 32L-27.7 16L-27.7 -16Z" fill="#297EA6"></path></g><g transform="translate(33 25)"><path d="M0 -26L22.5 -13L22.5 13L0 26L-22.5 13L-22.5 -13Z" fill="#297EA6"></path></g><g transform="translate(888 211)"><path d="M0 -22L19.1 -11L19.1 11L0 22L-19.1 11L-19.1 -11Z" fill="#297EA6"></path></g><g transform="translate(705 553)"><path d="M0 -29L25.1 -14.5L25.1 14.5L0 29L-25.1 14.5L-25.1 -14.5Z" fill="#297EA6"></path></g><g transform="translate(491 488)"><path d="M0 -24L20.8 -12L20.8 12L0 24L-20.8 12L-20.8 -12Z" fill="#297EA6"></path></g><g transform="translate(743 256)"><path d="M0 -31L26.8 -15.5L26.8 15.5L0 31L-26.8 15.5L-26.8 -15.5Z" fill="#297EA6"></path></g><g transform="translate(1 483)"><path d="M0 -30L26 -15L26 15L0 30L-26 15L-26 -15Z" fill="#297EA6"></path></g><g transform="translate(125 102)"><path d="M0 -30L26 -15L26 15L0 30L-26 15L-26 -15Z" fill="#297EA6"></path></g><g transform="translate(121 483)"><path d="M0 -32L27.7 -16L27.7 16L0 32L-27.7 16L-27.7 -16Z" fill="#297EA6"></path></g><g transform="translate(565 509)"><path d="M0 -23L19.9 -11.5L19.9 11.5L0 23L-19.9 11.5L-19.9 -11.5Z" fill="#297EA6"></path></g><g transform="translate(118 203)"><path d="M0 -22L19.1 -11L19.1 11L0 22L-19.1 11L-19.1 -11Z" fill="#297EA6"></path></g><g transform="translate(339 231)"><path d="M0 -21L18.2 -10.5L18.2 10.5L0 21L-18.2 10.5L-18.2 -10.5Z" fill="#297EA6"></path></g><g transform="translate(654 180)"><path d="M0 -21L18.2 -10.5L18.2 10.5L0 21L-18.2 10.5L-18.2 -10.5Z" fill="#297EA6"></path></g><g transform="translate(627 14)"><path d="M0 -32L27.7 -16L27.7 16L0 32L-27.7 16L-27.7 -16Z" fill="#297EA6"></path></g><g transform="translate(6 162)"><path d="M0 -31L26.8 -15.5L26.8 15.5L0 31L-26.8 15.5L-26.8 -15.5Z" fill="#297EA6"></path></g><g transform="translate(670 272)"><path d="M0 -32L27.7 -16L27.7 16L0 32L-27.7 16L-27.7 -16Z" fill="#297EA6"></path></g><g transform="translate(112 331)"><path d="M0 -23L19.9 -11.5L19.9 11.5L0 23L-19.9 11.5L-19.9 -11.5Z" fill="#297EA6"></path></g><g transform="translate(237 249)"><path d="M0 -23L19.9 -11.5L19.9 11.5L0 23L-19.9 11.5L-19.9 -11.5Z" fill="#297EA6"></path></g><g transform="translate(460 191)"><path d="M0 -29L25.1 -14.5L25.1 14.5L0 29L-25.1 14.5L-25.1 -14.5Z" fill="#297EA6"></path></g><g transform="translate(355 76)"><path d="M0 -25L21.7 -12.5L21.7 12.5L0 25L-21.7 12.5L-21.7 -12.5Z" fill="#297EA6"></path></g><g transform="translate(771 334)"><path d="M0 -32L27.7 -16L27.7 16L0 32L-27.7 16L-27.7 -16Z" fill="#297EA6"></path></g><g transform="translate(761 503)"><path d="M0 -23L19.9 -11.5L19.9 11.5L0 23L-19.9 11.5L-19.9 -11.5Z" fill="#297EA6"></path></g><g transform="translate(6 285)"><path d="M0 -31L26.8 -15.5L26.8 15.5L0 31L-26.8 15.5L-26.8 -15.5Z" fill="#297EA6"></path></g><g transform="translate(415 329)"><path d="M0 -27L23.4 -13.5L23.4 13.5L0 27L-23.4 13.5L-23.4 -13.5Z" fill="#297EA6"></path></g></g></svg>