<svg id="visual" viewBox="0 0 900 600" width="900" height="600" xmlns="http://www.w3.org/2000/svg" xmlns:xlink="http://www.w3.org/1999/xlink" version="1.1"><path d="M0 151L82 205L164 247L245 97L327 127L409 175L491 265L573 145L655 97L736 229L818 229L900 217L900 0L818 0L736 0L655 0L573 0L491 0L409 0L327 0L245 0L164 0L82 0L0 0Z" fill="#00cc8e"></path><path d="M0 349L82 283L164 391L245 337L327 385L409 349L491 379L573 331L655 319L736 391L818 361L900 349L900 215L818 227L736 227L655 95L573 143L491 263L409 173L327 125L245 95L164 245L82 203L0 149Z" fill="#00b98a"></path><path d="M0 397L82 373L164 433L245 385L327 439L409 403L491 481L573 457L655 415L736 463L818 457L900 415L900 347L818 359L736 389L655 317L573 329L491 377L409 347L327 383L245 335L164 389L82 281L0 347Z" fill="#00a784"></path><path d="M0 445L82 457L164 517L245 457L327 493L409 469L491 547L573 517L655 469L736 535L818 529L900 481L900 413L818 455L736 461L655 413L573 455L491 479L409 401L327 437L245 383L164 431L82 371L0 395Z" fill="#00957c"></path><path d="M0 601L82 601L164 601L245 601L327 601L409 601L491 601L573 601L655 601L736 601L818 601L900 601L900 479L818 527L736 533L655 467L573 515L491 545L409 467L327 491L245 455L164 515L82 455L0 443Z" fill="#038373"></path></svg>