<svg id="visual" viewBox="0 0 900 600" width="900" height="600" xmlns="http://www.w3.org/2000/svg" xmlns:xlink="http://www.w3.org/1999/xlink" version="1.1"><path d="M0 235L39 235L39 109L78 109L78 127L117 127L117 211L157 211L157 193L196 193L196 229L235 229L235 283L274 283L274 175L313 175L313 235L352 235L352 133L391 133L391 211L430 211L430 103L470 103L470 175L509 175L509 235L548 235L548 253L587 253L587 127L626 127L626 103L665 103L665 109L704 109L704 199L743 199L743 163L783 163L783 247L822 247L822 283L861 283L861 181L900 181L900 103L900 0L900 0L861 0L861 0L822 0L822 0L783 0L783 0L743 0L743 0L704 0L704 0L665 0L665 0L626 0L626 0L587 0L587 0L548 0L548 0L509 0L509 0L470 0L470 0L430 0L430 0L391 0L391 0L352 0L352 0L313 0L313 0L274 0L274 0L235 0L235 0L196 0L196 0L157 0L157 0L117 0L117 0L78 0L78 0L39 0L39 0L0 0Z" fill="#fa7268"></path><path d="M0 337L39 337L39 169L78 169L78 217L117 217L117 325L157 325L157 289L196 289L196 283L235 283L235 331L274 331L274 259L313 259L313 325L352 325L352 205L391 205L391 283L430 283L430 193L470 193L470 241L509 241L509 307L548 307L548 343L587 343L587 235L626 235L626 223L665 223L665 199L704 199L704 289L743 289L743 277L783 277L783 331L822 331L822 343L861 343L861 253L900 253L900 187L900 101L900 179L861 179L861 281L822 281L822 245L783 245L783 161L743 161L743 197L704 197L704 107L665 107L665 101L626 101L626 125L587 125L587 251L548 251L548 233L509 233L509 173L470 173L470 101L430 101L430 209L391 209L391 131L352 131L352 233L313 233L313 173L274 173L274 281L235 281L235 227L196 227L196 191L157 191L157 209L117 209L117 125L78 125L78 107L39 107L39 233L0 233Z" fill="#ea5e66"></path><path d="M0 385L39 385L39 319L78 319L78 367L117 367L117 481L157 481L157 409L196 409L196 391L235 391L235 433L274 433L274 331L313 331L313 385L352 385L352 319L391 319L391 409L430 409L430 331L470 331L470 301L509 301L509 391L548 391L548 397L587 397L587 379L626 379L626 361L665 361L665 277L704 277L704 343L743 343L743 427L783 427L783 391L822 391L822 409L861 409L861 415L900 415L900 271L900 185L900 251L861 251L861 341L822 341L822 329L783 329L783 275L743 275L743 287L704 287L704 197L665 197L665 221L626 221L626 233L587 233L587 341L548 341L548 305L509 305L509 239L470 239L470 191L430 191L430 281L391 281L391 203L352 203L352 323L313 323L313 257L274 257L274 329L235 329L235 281L196 281L196 287L157 287L157 323L117 323L117 215L78 215L78 167L39 167L39 335L0 335Z" fill="#d84a64"></path><path d="M0 529L39 529L39 523L78 523L78 541L117 541L117 559L157 559L157 499L196 499L196 565L235 565L235 559L274 559L274 553L313 553L313 565L352 565L352 565L391 565L391 553L430 553L430 511L470 511L470 499L509 499L509 547L548 547L548 529L587 529L587 529L626 529L626 559L665 559L665 565L704 565L704 547L743 547L743 559L783 559L783 523L822 523L822 517L861 517L861 559L900 559L900 523L900 269L900 413L861 413L861 407L822 407L822 389L783 389L783 425L743 425L743 341L704 341L704 275L665 275L665 359L626 359L626 377L587 377L587 395L548 395L548 389L509 389L509 299L470 299L470 329L430 329L430 407L391 407L391 317L352 317L352 383L313 383L313 329L274 329L274 431L235 431L235 389L196 389L196 407L157 407L157 479L117 479L117 365L78 365L78 317L39 317L39 383L0 383Z" fill="#c53762"></path><path d="M0 601L39 601L39 601L78 601L78 601L117 601L117 601L157 601L157 601L196 601L196 601L235 601L235 601L274 601L274 601L313 601L313 601L352 601L352 601L391 601L391 601L430 601L430 601L470 601L470 601L509 601L509 601L548 601L548 601L587 601L587 601L626 601L626 601L665 601L665 601L704 601L704 601L743 601L743 601L783 601L783 601L822 601L822 601L861 601L861 601L900 601L900 601L900 521L900 557L861 557L861 515L822 515L822 521L783 521L783 557L743 557L743 545L704 545L704 563L665 563L665 557L626 557L626 527L587 527L587 527L548 527L548 545L509 545L509 497L470 497L470 509L430 509L430 551L391 551L391 563L352 563L352 563L313 563L313 551L274 551L274 557L235 557L235 563L196 563L196 497L157 497L157 557L117 557L117 539L78 539L78 521L39 521L39 527L0 527Z" fill="#b0235f"></path></svg>