<svg id="visual" viewBox="0 0 900 600" width="900" height="600" xmlns="http://www.w3.org/2000/svg" xmlns:xlink="http://www.w3.org/1999/xlink" version="1.1"><rect x="0" y="0" width="900" height="600" fill="#002233"></rect><path d="M0 441L21.5 432C43 423 86 405 128.8 405.3C171.7 405.7 214.3 424.3 257.2 407.7C300 391 343 339 385.8 319.2C428.7 299.3 471.3 311.7 514.2 316.2C557 320.7 600 317.3 642.8 321.5C685.7 325.7 728.3 337.3 771.2 336.8C814 336.3 857 323.7 878.5 317.3L900 311L900 601L878.5 601C857 601 814 601 771.2 601C728.3 601 685.7 601 642.8 601C600 601 557 601 514.2 601C471.3 601 428.7 601 385.8 601C343 601 300 601 257.2 601C214.3 601 171.7 601 128.8 601C86 601 43 601 21.5 601L0 601Z" fill="#0066FF" stroke-linecap="round" stroke-linejoin="miter"></path></svg>